<svg width="324" height="317" viewBox="0 0 324 317" fill="none" xmlns="http://www.w3.org/2000/svg">
<path d="M163.2 315.744C162.441 316.109 161.56 316.109 160.802 315.744L33.1025 254.246C32.3457 253.882 31.7948 253.193 31.6084 252.374L0.0697399 114.19C-0.118064 113.371 0.0780066 112.511 0.602753 111.854L88.9742 1.03981C89.4976 0.3825 90.2929 0 91.1325 0H232.869C233.71 0 234.504 0.3825 235.029 1.03981L323.402 111.854C323.927 112.511 324.12 113.371 323.927 114.19L292.4 252.374C292.207 253.193 291.655 253.882 290.895 254.246L163.2 315.744Z" fill="black"/>
<path d="M102.818 175.792V241.806H115.869V258.323H81.3572V175.792H102.818ZM167.576 175.792L179.86 258.323H157.89L156.82 243.489H149.121L147.847 258.323H125.621L136.53 175.792H167.576ZM156.208 228.859C155.12 219.513 154.033 207.975 152.945 194.245C150.77 210.013 149.411 221.552 148.867 228.859H156.208ZM192.928 175.792H214.338C221.1 175.792 226.215 176.318 229.682 177.371C233.182 178.425 236.003 180.567 238.145 183.795C240.285 186.989 241.355 192.155 241.355 199.292C241.355 204.118 240.59 207.482 239.061 209.385C237.566 211.288 234.593 212.75 230.141 213.769C235.102 214.891 238.466 216.76 240.234 219.377C242.001 221.96 242.885 225.935 242.885 231.306V238.952C242.885 244.525 242.239 248.654 240.948 251.34C239.69 254.024 237.668 255.86 234.881 256.844C232.095 257.83 226.385 258.323 217.753 258.323H192.928V175.792ZM214.389 189.911V208.264C215.306 208.229 216.02 208.213 216.529 208.213C218.636 208.213 219.979 207.703 220.557 206.684C221.134 205.63 221.423 202.656 221.423 197.762C221.423 195.179 221.185 193.379 220.709 192.358C220.234 191.305 219.606 190.643 218.824 190.371C218.076 190.099 216.598 189.946 214.389 189.911ZM214.389 221.11V244.202C217.413 244.101 219.334 243.625 220.148 242.775C220.999 241.926 221.423 239.835 221.423 236.505V228.807C221.423 225.272 221.05 223.132 220.302 222.385C219.555 221.636 217.583 221.212 214.389 221.11Z" fill="white"/>
<path d="M162.321 122.994C161.258 124.834 158.601 124.834 157.538 122.994L137.265 87.8798C137.24 87.8356 137.272 87.7804 137.323 87.7804C137.359 87.7804 137.388 87.7514 137.388 87.7155L137.793 47.0711C137.809 45.5356 136.569 44.2817 135.032 44.2817H92.2649C90.739 44.2817 89.5031 43.0458 89.5031 41.5199V2.85435C89.5031 1.32845 90.739 0.0925293 92.2649 0.0925293H228.975C230.501 0.0925293 231.737 1.32845 231.737 2.85435V41.5199C231.737 43.0458 230.501 44.2817 228.975 44.2817H186.103C184.594 44.2817 183.365 45.4928 183.341 47.0007L182.715 87.7404C182.715 87.7625 182.697 87.7804 182.675 87.7804C182.661 87.7804 182.647 87.7887 182.64 87.8011L162.321 122.994Z" fill="white"/>
<path d="M97.6698 41.5199L98.0261 39.1516C99.7633 39.0329 101.144 38.7359 102.172 38.2623C103.238 37.7886 104.164 37.0195 104.954 35.9534L115.793 21.5616L104.54 5.98626C104.026 5.31514 103.376 4.8415 102.586 4.56531C101.796 4.24908 100.552 4.01155 98.8546 3.85412L99.1502 1.48586H116.976L116.621 3.85412C114.173 4.09164 112.495 4.66332 111.588 5.57196L119.76 16.9424L128.347 5.51258C126.966 4.64399 125.288 4.09164 123.313 3.85412L123.61 1.48586H138.001L137.646 3.85412C134.96 4.09164 133.125 4.88015 132.137 6.22377L121.892 19.8451L133.618 36.0708C134.843 37.7693 136.856 38.7953 139.659 39.1516L139.362 41.5199H121.359L121.714 39.1516C124.479 39.1516 126.314 38.5592 127.223 37.3744L117.924 24.5236L108.093 37.5525C108.804 38.6186 110.798 39.1516 114.075 39.1516L113.778 41.5199H97.6698ZM154.945 41.5199L155.299 39.1516C157.866 38.874 159.88 38.3217 161.341 37.4932V25.8852L150.088 5.98626C149.219 4.84148 147.423 4.13031 144.7 3.85412L144.995 1.48586H162.229L161.874 3.85412C159.347 4.17035 157.491 4.64399 156.306 5.27507L164.953 20.9692L173.718 5.33445C172.376 4.66332 170.362 4.17035 167.678 3.85412L167.973 1.48586H183.194L182.839 3.85412C180.312 3.93284 178.613 4.56531 177.745 5.74875L166.967 25.4709V37.4932C168.428 38.283 170.56 38.8354 173.363 39.1516L173.066 41.5199H154.945ZM213.367 4.80143L208.036 4.74206C203.298 4.74206 199.884 4.82215 197.791 4.97957C196.29 6.28177 195.284 8.59204 194.77 11.909C194.218 11.9877 193.784 12.0264 193.468 12.0264C193.152 12.0264 192.757 11.9877 192.283 11.909L191.514 2.6693L193.172 1.24835C198.857 1.40578 203.693 1.48586 207.682 1.48586C211.668 1.48586 215.873 1.40578 220.296 1.24835L220.829 3.73537L197.851 38.2029C198.996 38.243 201.443 38.2623 205.194 38.2623C208.984 38.2623 211.886 38.243 213.9 38.2029C215.913 35.7559 217.275 33.0714 217.986 30.1494C218.538 30.0707 218.993 30.0307 219.347 30.0307C219.742 30.0307 220.216 30.0707 220.77 30.1494L220.237 41.698C217.315 41.5792 211.768 41.5199 203.595 41.5199L191.158 41.7574L190.921 38.6186L213.367 4.80143Z" fill="black"/>
<path d="M159.929 122.303C157.627 126.446 158.134 135.836 181.334 134.731C204.533 133.627 213.958 143.707 213.785 147.85C213.525 154.064 206.742 162.073 181.334 160.969C149.573 159.588 137.144 160.969 145.43 172.706C150.844 180.377 156.477 191.349 159.239 195.492" stroke="white" stroke-width="9"/>
</svg>
