<svg width="443" height="97" viewBox="0 0 443 97" fill="none" xmlns="http://www.w3.org/2000/svg">
<path d="M326.37 13.488V68.289H337.2V82H308.55V13.488H326.37ZM380.13 13.488L390.33 82H372.09L371.2 69.686H364.81L363.75 82H345.3L354.36 13.488H380.13ZM370.69 57.54C369.79 49.782 368.89 40.204 367.98 28.807C366.18 41.897 365.05 51.475 364.6 57.54H370.69ZM401.17 13.488H418.95C424.56 13.488 428.81 13.925 431.68 14.799C434.59 15.674 436.93 17.451 438.71 20.132C440.49 22.783 441.37 27.072 441.37 32.996C441.37 37.002 440.74 39.795 439.47 41.375C438.23 42.955 435.76 44.168 432.06 45.014C436.18 45.945 438.98 47.497 440.44 49.669C441.91 51.813 442.64 55.114 442.64 59.572V65.919C442.64 70.546 442.11 73.974 441.04 76.202C439.99 78.431 438.31 79.955 436 80.773C433.69 81.591 428.95 82 421.78 82H401.17V13.488ZM418.99 25.21V40.444C419.75 40.416 420.34 40.402 420.77 40.402C422.52 40.402 423.63 39.979 424.11 39.132C424.59 38.258 424.83 35.789 424.83 31.727C424.83 29.582 424.63 28.087 424.24 27.241C423.84 26.366 423.32 25.816 422.67 25.59C422.05 25.365 420.82 25.238 418.99 25.21ZM418.99 51.108V70.278C421.5 70.193 423.09 69.798 423.77 69.093C424.48 68.388 424.83 66.653 424.83 63.888V57.498C424.83 54.564 424.52 52.787 423.9 52.166C423.28 51.545 421.64 51.193 418.99 51.108Z" fill="white"/>
<path d="M130.03 46.436L107.26 12.809H118.31L135.56 39.846L153.58 12.809H163.85L140.98 46.436L165.31 82H154.07L135.46 53.413L116.27 82H106L130.03 46.436ZM201.39 53.704V82H192.18V53.704L165.43 12.809H176.39L197.12 45.757L217.38 12.809H227.84L201.39 53.704ZM230.21 74.248L273.24 20.562H233.51V12.809H284.09V20.562L241.16 74.248H285.25V82H230.21V74.248Z" fill="white"/>
<path d="M49.9379 96.581C49.3889 96.845 48.751 96.845 48.202 96.581L10.455 78.403C9.90695 78.139 9.50892 77.64 9.37292 77.046L0.0499214 36.201C-0.0850786 35.607 0.0569453 34.985 0.436945 34.509L26.5579 1.75305C26.9379 1.27705 27.5129 1 28.1219 1H70.0179C70.6269 1 71.202 1.27705 71.582 1.75305L97.7029 34.509C98.0829 34.985 98.225 35.607 98.09 36.201L88.767 77.046C88.631 77.64 88.2329 78.139 87.6849 78.403L49.9379 96.581Z" fill="white"/>
<path d="M50.7977 39.9061C49.9236 41.3647 47.7395 41.3647 46.8655 39.9061L41.024 30.1522C41.0149 30.1369 41.0263 30.1193 41.0433 30.1193C41.0558 30.1193 41.066 30.1095 41.066 30.0974L41.1932 17.8838C41.2057 16.667 40.1851 15.6735 38.9229 15.6735H26.8403C25.5859 15.6735 24.5699 14.6942 24.5699 13.4851V3.18844C24.5699 1.98042 25.5859 1 26.8403 1H71.2996C72.554 1 73.5699 1.98042 73.5699 3.18844V13.4851C73.5699 14.6942 72.554 15.6735 71.2996 15.6735H59.1478C57.9071 15.6735 56.8968 16.6331 56.8775 17.8291L56.6812 30.1062C56.6812 30.1128 56.6755 30.1193 56.6675 30.1193C56.663 30.1193 56.6584 30.1215 56.6561 30.1259L50.7977 39.9061Z" fill="black"/>
<path d="M49.5697 39C48.403 39.8333 47.6142 43.1317 48.07 44.5C48.5697 46 50.1294 46.5149 52.0697 47C54.0697 47.5 64.5697 49 60.5697 50C56.5697 51 35.2582 49.7531 36.5699 55C37.5699 59 65.0697 58.5 67.5699 61.5C71.8406 66.6245 31.8574 60.4375 33.5699 69C34.0699 71.5 62.0698 74.5 65.5698 74.5" stroke="black" stroke-width="4"/>
</svg>
